<?xml version="1.0" encoding="UTF-8"?>
<svg width="300px" height="300px" viewBox="0 0 300 300" version="1.1" xmlns="http://www.w3.org/2000/svg" xmlns:xlink="http://www.w3.org/1999/xlink">
    <!-- Generator: Sketch 49.1 (51147) - http://www.bohemiancoding.com/sketch -->
    <title>White</title>
    <desc>Created with Sketch.</desc>
    <defs>
        <rect id="path-1" x="0" y="0" width="300" height="300"></rect>
        <circle id="path-3" cx="8.30232558" cy="8.30232558" r="8.30232558"></circle>
        <circle id="path-5" cx="8.30232558" cy="8.30232558" r="8.30232558"></circle>
        <circle id="path-7" cx="8.30232558" cy="8.30232558" r="8.30232558"></circle>
    </defs>
    <g id="Sign-Up" stroke="none" stroke-width="1" fill="none" fill-rule="evenodd" opacity="0.0799999982">
        <g id="White">
            <mask id="mask-2" fill="white">
                <use xlink:href="#path-1"></use>
            </mask>
            <g id="path-1"></g>
            <g id="Group" mask="url(#mask-2)">
                <g transform="translate(-13.000000, -24.000000)">
                    <circle id="Oval" stroke="#FFFFFF" stroke-width="1.5" fill="none" stroke-linecap="round" stroke-linejoin="round" cx="103.302326" cy="138.302326" r="8.30232558"></circle>
                    <circle id="Oval" stroke="#FFFFFF" stroke-width="1.5" fill="none" stroke-linecap="round" stroke-linejoin="round" cx="103.44186" cy="136.44186" r="2.44186047"></circle>
                    <g id="Clipped" stroke="none" stroke-width="1" fill="none" fill-rule="evenodd" transform="translate(95.000000, 130.000000)">
                        <mask id="mask-4" fill="white">
                            <use xlink:href="#path-3"></use>
                        </mask>
                        <g id="path-3"></g>
                        <circle id="Oval" stroke="#FFFFFF" stroke-width="1.5" stroke-linecap="round" stroke-linejoin="round" mask="url(#mask-4)" cx="8.3255814" cy="16.3255814" r="7.3255814"></circle>
                    </g>
                    <circle id="Oval" stroke="#FFFFFF" stroke-width="1.5" fill="none" stroke-linecap="round" stroke-linejoin="round" cx="293.302326" cy="113.302326" r="8.30232558"></circle>
                    <circle id="Oval" stroke="#FFFFFF" stroke-width="1.5" fill="none" stroke-linecap="round" stroke-linejoin="round" cx="293.44186" cy="111.44186" r="2.44186047"></circle>
                    <g id="Clipped" stroke="none" stroke-width="1" fill="none" fill-rule="evenodd" transform="translate(285.000000, 105.000000)">
                        <mask id="mask-6" fill="white">
                            <use xlink:href="#path-5"></use>
                        </mask>
                        <g id="path-5"></g>
                        <circle id="Oval" stroke="#FFFFFF" stroke-width="1.5" stroke-linecap="round" stroke-linejoin="round" mask="url(#mask-6)" cx="8.3255814" cy="16.3255814" r="7.3255814"></circle>
                    </g>
                    <circle id="Oval" stroke="#FFFFFF" stroke-width="1.5" fill="none" stroke-linecap="round" stroke-linejoin="round" cx="87.3023256" cy="284.302326" r="8.30232558"></circle>
                    <circle id="Oval" stroke="#FFFFFF" stroke-width="1.5" fill="none" stroke-linecap="round" stroke-linejoin="round" cx="87.4418605" cy="282.44186" r="2.44186047"></circle>
                    <g id="Clipped" stroke="none" stroke-width="1" fill="none" fill-rule="evenodd" transform="translate(79.000000, 276.000000)">
                        <mask id="mask-8" fill="white">
                            <use xlink:href="#path-7"></use>
                        </mask>
                        <g id="path-7"></g>
                        <circle id="Oval" stroke="#FFFFFF" stroke-width="1.5" stroke-linecap="round" stroke-linejoin="round" mask="url(#mask-8)" cx="8.3255814" cy="16.3255814" r="7.3255814"></circle>
                    </g>
                    <circle id="Oval" stroke="#FFFFFF" stroke-width="1.5" fill="none" cx="31" cy="66" r="7"></circle>
                    <circle id="Oval" stroke="#FFFFFF" stroke-width="1.5" fill="none" cx="31" cy="66" r="13"></circle>
                    <circle id="Oval" stroke="#FFFFFF" stroke-width="1.5" fill="none" cx="31" cy="66" r="19"></circle>
                    <circle id="Oval" stroke="#FFFFFF" stroke-width="1.5" fill="none" cx="31" cy="66" r="25"></circle>
                    <circle id="Oval" stroke="#FFFFFF" stroke-width="1.5" fill="none" cx="31" cy="66" r="31"></circle>
                    <path d="M18.3890873,71.1819805 L18.3890873,36.1819805" id="Path-3" stroke="#FFFFFF" stroke-width="1.5" fill="none" transform="translate(18.889087, 53.681981) rotate(-45.000000) translate(-18.889087, -53.681981) "></path>
                    <circle id="Oval" stroke="#FFFFFF" stroke-width="1.5" fill="none" cx="331" cy="66" r="19"></circle>
                    <circle id="Oval" stroke="#FFFFFF" stroke-width="1.5" fill="none" cx="331" cy="66" r="25"></circle>
                    <circle id="Oval" stroke="#FFFFFF" stroke-width="1.5" fill="none" cx="331" cy="66" r="31"></circle>
                    <path d="M318.389087,71.1819805 L318.389087,36.1819805" id="Path-3" stroke="#FFFFFF" stroke-width="1.5" fill="none" transform="translate(318.889087, 53.681981) rotate(-45.000000) translate(-318.889087, -53.681981) "></path>
                    <polygon id="Path-4" stroke="#FFFFFF" stroke-width="1.5" fill="none" transform="translate(302.625631, 38.125631) rotate(-45.000000) translate(-302.625631, -38.125631) " points="298.625631 33.1256313 302.625631 35.2308945 306.625631 33.1256313 306.625631 39.9677366 302.625631 43.1256313 298.625631 39.9677366"></polygon>
                    <path d="M277.179623,137.555132 L301.179623,137.555132 L301.179623,167.555132 C301.179623,168.659701 300.284192,169.555132 299.179623,169.555132 L277.179623,169.555132 C276.075053,169.555132 275.179623,168.659701 275.179623,167.555132 L275.179623,139.555132 C275.179623,138.450562 276.075053,137.555132 277.179623,137.555132 Z" id="Rectangle-9" stroke="#FFFFFF" stroke-width="1.5" fill="none" transform="translate(288.179623, 153.555132) rotate(30.000000) translate(-288.179623, -153.555132) "></path>
                    <path d="M299.68928,145.517274 L305.853815,145.554511 C306.918321,145.560941 307.791245,146.400082 307.839664,147.463506 L308.516461,162.327889 L303.129209,162.327889 L303.129209,153.20755" id="Rectangle-9" stroke="#FFFFFF" stroke-width="1.5" fill="none" transform="translate(304.102871, 153.922581) rotate(30.000000) translate(-304.102871, -153.922581) "></path>
                    <path d="M285.927233,144.836808 L299.962902,144.836808" id="Path-15" stroke="#FFFFFF" stroke-width="1.5" fill="none" transform="translate(292.945068, 145.336808) rotate(30.000000) translate(-292.945068, -145.336808) "></path>
                    <path d="M283.427233,149.166935 L297.462902,149.166935" id="Path-15" stroke="#FFFFFF" stroke-width="1.5" fill="none" transform="translate(290.445068, 149.666935) rotate(30.000000) translate(-290.445068, -149.666935) "></path>
                    <path d="M280.927233,153.497062 L294.962902,153.497062" id="Path-15" stroke="#FFFFFF" stroke-width="1.5" fill="none" transform="translate(287.945068, 153.997062) rotate(30.000000) translate(-287.945068, -153.997062) "></path>
                    <path d="M278.427233,157.827189 L292.462902,157.827189" id="Path-15" stroke="#FFFFFF" stroke-width="1.5" fill="none" transform="translate(285.445068, 158.327189) rotate(30.000000) translate(-285.445068, -158.327189) "></path>
                    <path d="M276.331547,160.648398 L284.331547,160.648398" id="Path-15" stroke="#FFFFFF" stroke-width="1.5" fill="none" transform="translate(280.331547, 161.148398) rotate(30.000000) translate(-280.331547, -161.148398) "></path>
                    <path d="M120.037611,261.065905 L144.037611,261.065905 L144.037611,291.065905 C144.037611,292.170474 143.142181,293.065905 142.037611,293.065905 L120.037611,293.065905 C118.933042,293.065905 118.037611,292.170474 118.037611,291.065905 L118.037611,263.065905 C118.037611,261.961335 118.933042,261.065905 120.037611,261.065905 Z" id="Rectangle-9" stroke="#FFFFFF" stroke-width="1.5" fill="none" transform="translate(131.037611, 277.065905) rotate(20.000000) translate(-131.037611, -277.065905) "></path>
                    <path d="M142.369165,266.257421 L148.5337,266.294659 C149.598206,266.301089 150.47113,267.14023 150.519549,268.203653 L151.196347,283.068037 L145.809094,283.068037 L145.809094,273.947698" id="Rectangle-9" stroke="#FFFFFF" stroke-width="1.5" fill="none" transform="translate(146.782756, 274.662729) rotate(20.000000) translate(-146.782756, -274.662729) "></path>
                    <path d="M127.285727,267.644925 L141.321396,267.644925" id="Path-15" stroke="#FFFFFF" stroke-width="1.5" fill="none" transform="translate(134.303561, 268.144925) rotate(20.000000) translate(-134.303561, -268.144925) "></path>
                    <path d="M125.575626,272.343388 L139.611295,272.343388" id="Path-15" stroke="#FFFFFF" stroke-width="1.5" fill="none" transform="translate(132.593461, 272.843388) rotate(20.000000) translate(-132.593461, -272.843388) "></path>
                    <path d="M123.865525,277.041851 L137.901194,277.041851" id="Path-15" stroke="#FFFFFF" stroke-width="1.5" fill="none" transform="translate(130.883360, 277.541851) rotate(20.000000) translate(-130.883360, -277.541851) "></path>
                    <path d="M122.155425,281.740314 L136.191094,281.740314" id="Path-15" stroke="#FFFFFF" stroke-width="1.5" fill="none" transform="translate(129.173259, 282.240314) rotate(20.000000) translate(-129.173259, -282.240314) "></path>
                    <path d="M120.627322,285.406617 L128.627322,285.406617" id="Path-15" stroke="#FFFFFF" stroke-width="1.5" fill="none" transform="translate(124.627322, 285.906617) rotate(20.000000) translate(-124.627322, -285.906617) "></path>
                    <rect id="Rectangle-8" stroke="#FFFFFF" stroke-width="1.5" fill="none" transform="translate(86.635907, 239.987887) rotate(-30.000000) translate(-86.635907, -239.987887) " x="72.1046566" y="225.925387" width="29.0625" height="28.125" rx="2"></rect>
                    <path d="M68.6034006,233.421022 L97.684651,233.421022" id="Path-8" stroke="#FFFFFF" stroke-width="1.5" fill="none" transform="translate(83.144026, 233.921022) rotate(-30.000000) translate(-83.144026, -233.921022) "></path>
                    <path d="M78.8588649,241.578352 L81.6713649,241.578352" id="Path-8" stroke="#FFFFFF" stroke-width="1.5" fill="none" transform="translate(80.265115, 242.078352) rotate(-30.000000) translate(-80.265115, -242.078352) "></path>
                    <path d="M84.5421566,238.297102 L87.3546566,238.297102" id="Path-8" stroke="#FFFFFF" stroke-width="1.5" fill="none" transform="translate(85.948407, 238.797102) rotate(-30.000000) translate(-85.948407, -238.797102) "></path>
                    <path d="M90.2254483,235.015852 L93.0379483,235.015852" id="Path-8" stroke="#FFFFFF" stroke-width="1.5" fill="none" transform="translate(91.631698, 235.515852) rotate(-30.000000) translate(-91.631698, -235.515852) "></path>
                    <path d="M81.6713649,246.449745 L84.4838649,246.449745" id="Path-8" stroke="#FFFFFF" stroke-width="1.5" fill="none" transform="translate(83.077615, 246.949745) rotate(-30.000000) translate(-83.077615, -246.949745) "></path>
                    <path d="M87.3546566,243.168495 L90.1671566,243.168495" id="Path-8" stroke="#FFFFFF" stroke-width="1.5" fill="none" transform="translate(88.760907, 243.668495) rotate(-30.000000) translate(-88.760907, -243.668495) "></path>
                    <path d="M93.0379483,239.887245 L95.8504483,239.887245" id="Path-8" stroke="#FFFFFF" stroke-width="1.5" fill="none" transform="translate(94.444198, 240.387245) rotate(-30.000000) translate(-94.444198, -240.387245) "></path>
                    <path d="M84.4838649,251.321138 L87.2963649,251.321138" id="Path-8" stroke="#FFFFFF" stroke-width="1.5" fill="none" transform="translate(85.890115, 251.821138) rotate(-30.000000) translate(-85.890115, -251.821138) "></path>
                    <path d="M90.1671566,248.039888 L92.9796566,248.039888" id="Path-8" stroke="#FFFFFF" stroke-width="1.5" fill="none" transform="translate(91.573407, 248.539888) rotate(-30.000000) translate(-91.573407, -248.539888) "></path>
                    <path d="M95.8504483,244.758638 L98.6629483,244.758638" id="Path-8" stroke="#FFFFFF" stroke-width="1.5" fill="none" transform="translate(97.256698, 245.258638) rotate(-30.000000) translate(-97.256698, -245.258638) "></path>
                    <path d="M73.4484282,228.26253 L73.4484282,233.88753" id="Path-14" stroke="#FFFFFF" stroke-width="1.5" fill="none" transform="translate(73.948428, 231.075030) rotate(-30.000000) translate(-73.948428, -231.075030) "></path>
                    <path d="M85.6269104,221.23128 L85.6269104,226.85628" id="Path-14" stroke="#FFFFFF" stroke-width="1.5" fill="none" transform="translate(86.126910, 224.043780) rotate(-30.000000) translate(-86.126910, -224.043780) "></path>
                    <rect id="Rectangle" stroke="#FFFFFF" stroke-width="1.5" fill="none" transform="translate(58.967091, 181.967091) rotate(-15.000000) translate(-58.967091, -181.967091) " x="27.967091" y="150.967091" width="62" height="62" rx="2"></rect>
                    <path d="M70.8024053,193.120425 L70.8024053,199.120425 L44.8024053,199.120425 L44.8024053,193.120425 L33.8024053,193.120425 C32.6978358,193.120425 31.8024053,192.224994 31.8024053,191.120425 L31.8024053,158.120425 C31.8024053,157.015855 32.6978358,156.120425 33.8024053,156.120425 L81.8024053,156.120425 C82.9069748,156.120425 83.8024053,157.015855 83.8024053,158.120425 L83.8024053,191.120425 C83.8024053,192.224994 82.9069748,193.120425 81.8024053,193.120425 L70.8024053,193.120425 Z" id="Combined-Shape" stroke="#FFFFFF" stroke-width="1.5" fill="none" transform="translate(57.802405, 177.620425) rotate(-15.000000) translate(-57.802405, -177.620425) "></path>
                    <path d="M37.6965768,165.529315 L71.6965768,165.529315" id="Path-2" stroke="#FFFFFF" stroke-width="1.5" fill="none" transform="translate(54.696577, 166.029315) rotate(-15.000000) translate(-54.696577, -166.029315) "></path>
                    <path d="M39.249491,171.32487 L73.249491,171.32487" id="Path-2" stroke="#FFFFFF" stroke-width="1.5" fill="none" transform="translate(56.249491, 171.824870) rotate(-15.000000) translate(-56.249491, -171.824870) "></path>
                    <path d="M40.8024053,177.120425 L74.8024053,177.120425" id="Path-2" stroke="#FFFFFF" stroke-width="1.5" fill="none" transform="translate(57.802405, 177.620425) rotate(-15.000000) translate(-57.802405, -177.620425) "></path>
                    <path d="M42.3553196,182.91598 L76.3553196,182.91598" id="Path-2" stroke="#FFFFFF" stroke-width="1.5" fill="none" transform="translate(59.355320, 183.415980) rotate(-15.000000) translate(-59.355320, -183.415980) "></path>
                    <path d="M63.5758707,104.852367 L63.5758707,114.02028 C63.5758707,116.229419 65.3667317,118.02028 67.5758707,118.02028 C69.7850097,118.02028 71.5758707,116.229419 71.5758707,114.02028 L71.5758707,104.852367 C75.1076803,106.39548 77.5758707,109.919642 77.5758707,114.02028 C77.5758707,119.543127 73.0987182,124.02028 67.5758707,124.02028 C62.0530232,124.02028 57.5758707,119.543127 57.5758707,114.02028 C57.5758707,109.919642 60.0440611,106.39548 63.5758707,104.852367 Z" id="Combined-Shape" stroke="#FFFFFF" stroke-width="1.5" fill="none" stroke-linecap="round" transform="translate(67.575871, 114.436323) rotate(45.000000) translate(-67.575871, -114.436323) "></path>
                    <path d="M58.7885826,117.723611 L58.7885826,132.723611 C58.7885826,134.93275 56.9977216,136.723611 54.7885826,136.723611 C52.5794436,136.723611 50.7885826,134.93275 50.7885826,132.723611 L50.7885826,117.723611" id="Rectangle-4" stroke="#FFFFFF" stroke-width="1.5" fill="none" transform="translate(54.788583, 127.223611) rotate(45.000000) translate(-54.788583, -127.223611) "></path>
                    <path d="M291.575871,187.852367 L291.575871,197.02028 C291.575871,199.229419 293.366732,201.02028 295.575871,201.02028 C297.78501,201.02028 299.575871,199.229419 299.575871,197.02028 L299.575871,187.852367 C303.10768,189.39548 305.575871,192.919642 305.575871,197.02028 C305.575871,202.543127 301.098718,207.02028 295.575871,207.02028 C290.053023,207.02028 285.575871,202.543127 285.575871,197.02028 C285.575871,192.919642 288.044061,189.39548 291.575871,187.852367 Z" id="Combined-Shape" stroke="#FFFFFF" stroke-width="1.5" fill="none" stroke-linecap="round" transform="translate(295.575871, 197.436323) rotate(45.000000) translate(-295.575871, -197.436323) "></path>
                    <path d="M286.788583,200.723611 L286.788583,215.723611 C286.788583,217.93275 284.997722,219.723611 282.788583,219.723611 C280.579444,219.723611 278.788583,217.93275 278.788583,215.723611 L278.788583,200.723611" id="Rectangle-4" stroke="#FFFFFF" stroke-width="1.5" fill="none" transform="translate(282.788583, 210.223611) rotate(45.000000) translate(-282.788583, -210.223611) "></path>
                    <path d="M45.7778264,245.831203 C45.7216463,245.499601 45.407717,245.290084 45.0800514,245.36517 L43.0285531,245.834367 C42.7947267,244.845891 42.4028553,243.918688 41.881492,243.080463 L43.6612733,241.955627 C43.9453376,241.776437 44.0177235,241.405325 43.8225595,241.131756 C43.8225595,241.131756 43.5166559,240.570495 42.4557942,239.509788 C41.3950868,238.448849 40.8018006,238.120875 40.8018006,238.120875 C40.527537,237.926328 40.1574277,238.00018 39.9787781,238.284862 L38.8594984,240.068039 C38.0195756,239.549531 37.0912154,239.160514 36.1018907,238.929929 L36.5646817,236.87735 C36.6386881,236.549531 36.4280129,236.235987 36.0964887,236.180579 C36.0964887,236.180579 35.4832154,236 33.9828682,236 C32.4825209,236 31.8311254,236.187678 31.8311254,236.187678 C31.4998328,236.243936 31.2900064,236.557865 31.3650933,236.885531 L31.8344437,238.937183 C30.846045,239.170932 29.9189196,239.56265 29.0806174,240.084013 L27.9558585,238.304232 C27.7763601,238.020244 27.4055563,237.947627 27.1319871,238.142637 C27.1319871,238.142637 26.5706495,238.448772 25.5097106,239.509556 C24.4489261,240.570418 24.1208746,241.163781 24.1208746,241.163781 C23.926328,241.437814 24.0001029,241.808309 24.2847846,241.986881 L26.0680386,243.106006 C25.5495306,243.946006 25.1605916,244.874289 24.9299293,245.863614 L22.8772733,245.400746 C22.5495305,245.326894 22.2359871,245.537569 22.1805788,245.869016 C22.1805788,245.869016 22,246.482289 22,247.982791 C22,249.482907 22.1876013,250.134379 22.1876013,250.134379 C22.2438585,250.465672 22.557865,250.675498 22.8855305,250.600412 L24.9371061,250.131061 C25.1708553,251.119537 25.5626495,252.046585 26.0840129,252.884965 L24.3042315,254.009646 C24.0201672,254.189145 23.947627,254.559949 24.142791,254.833672 C24.142791,254.833672 24.4486945,255.394778 25.5096334,256.455871 C26.5703408,257.516502 27.1637042,257.844476 27.1637042,257.844476 C27.4378135,258.0391 27.8081543,257.965325 27.9868039,257.680643 L29.1060064,255.897466 C29.9458521,256.416129 30.8742122,256.80499 31.863537,257.03573 L31.400746,259.088154 C31.3267395,259.415974 31.5375691,259.729518 31.8690932,259.784772 C31.8690932,259.784772 32.4822122,259.965505 33.9827138,259.96535 C35.4828296,259.96535 36.1343023,259.777826 36.1343023,259.777826 C36.465672,259.721646 36.6754212,259.40764 36.6003344,259.079974 L36.1309839,257.028476 C37.1194598,256.794727 38.0466624,256.402778 38.8848875,255.881646 L40.0096463,257.661119 C40.1889904,257.945415 40.5598714,258.017723 40.8335177,257.82256 C40.8335177,257.82256 41.394701,257.516733 42.4556399,256.455794 C43.5163473,255.39501 43.8443987,254.801724 43.8443987,254.801724 C44.0389453,254.527537 43.9652476,254.157505 43.6805659,253.978778 L41.8973891,252.859498 C42.4159743,252.019653 42.8049132,251.091215 43.0355756,250.101891 L45.0881543,250.564605 C45.4158199,250.638765 45.7293633,250.427781 45.7846945,250.096334 C45.7846945,250.096334 45.9652733,249.483215 45.9652733,247.982868 C45.9655048,246.482675 45.7778264,245.831203 45.7778264,245.831203 Z" id="Path" stroke="#FFFFFF" stroke-width="1.5" fill="none"></path>
                    <path d="M33.9999533,251.359907 C32.1442699,251.359907 30.64,249.85573 30.64,247.999953 C30.64,246.14427 32.1441765,244.64 33.9999533,244.64 C35.8557301,244.64 37.36,246.144176 37.36,247.999953 C37.36,249.855637 35.8557301,251.359907 33.9999533,251.359907 Z" id="Path" stroke="#FFFFFF" stroke-width="1.5" fill="none"></path>
                    <path d="M120.777826,318.831203 C120.721646,318.499601 120.407717,318.290084 120.080051,318.36517 L118.028553,318.834367 C117.794727,317.845891 117.402855,316.918688 116.881492,316.080463 L118.661273,314.955627 C118.945338,314.776437 119.017724,314.405325 118.822559,314.131756 C118.822559,314.131756 118.516656,313.570495 117.455794,312.509788 C116.395087,311.448849 115.801801,311.120875 115.801801,311.120875 C115.527537,310.926328 115.157428,311.00018 114.978778,311.284862 L113.859498,313.068039 C113.019576,312.549531 112.091215,312.160514 111.101891,311.929929 L111.564682,309.87735 C111.638688,309.549531 111.428013,309.235987 111.096489,309.180579 C111.096489,309.180579 110.483215,309 108.982868,309 C107.482521,309 106.831125,309.187678 106.831125,309.187678 C106.499833,309.243936 106.290006,309.557865 106.365093,309.885531 L106.834444,311.937183 C105.846045,312.170932 104.91892,312.56265 104.080617,313.084013 L102.955859,311.304232 C102.77636,311.020244 102.405556,310.947627 102.131987,311.142637 C102.131987,311.142637 101.57065,311.448772 100.509711,312.509556 C99.448926,313.570418 99.1208746,314.163781 99.1208746,314.163781 C98.926328,314.437814 99.0001029,314.808309 99.2847846,314.986881 L101.068039,316.106006 C100.549531,316.946006 100.160592,317.874289 99.9299293,318.863614 L97.8772733,318.400746 C97.5495305,318.326894 97.2359871,318.537569 97.1805788,318.869016 C97.1805788,318.869016 97,319.482289 97,320.982791 C97,322.482907 97.1876013,323.134379 97.1876013,323.134379 C97.2438585,323.465672 97.557865,323.675498 97.8855305,323.600412 L99.9371061,323.131061 C100.170855,324.119537 100.56265,325.046585 101.084013,325.884965 L99.3042315,327.009646 C99.0201672,327.189145 98.947627,327.559949 99.142791,327.833672 C99.142791,327.833672 99.4486945,328.394778 100.509633,329.455871 C101.570341,330.516502 102.163704,330.844476 102.163704,330.844476 C102.437814,331.0391 102.808154,330.965325 102.986804,330.680643 L104.106006,328.897466 C104.945852,329.416129 105.874212,329.80499 106.863537,330.03573 L106.400746,332.088154 C106.32674,332.415974 106.537569,332.729518 106.869093,332.784772 C106.869093,332.784772 107.482212,332.965505 108.982714,332.96535 C110.48283,332.96535 111.134302,332.777826 111.134302,332.777826 C111.465672,332.721646 111.675421,332.40764 111.600334,332.079974 L111.130984,330.028476 C112.11946,329.794727 113.046662,329.402778 113.884888,328.881646 L115.009646,330.661119 C115.18899,330.945415 115.559871,331.017723 115.833518,330.82256 C115.833518,330.82256 116.394701,330.516733 117.45564,329.455794 C118.516347,328.39501 118.844399,327.801723 118.844399,327.801723 C119.038945,327.527537 118.965248,327.157505 118.680566,326.978778 L116.897389,325.859498 C117.415974,325.019653 117.804913,324.091215 118.035576,323.101891 L120.088154,323.564604 C120.41582,323.638765 120.729363,323.427781 120.784695,323.096334 C120.784695,323.096334 120.965273,322.483215 120.965273,320.982868 C120.965505,319.482675 120.777826,318.831203 120.777826,318.831203 Z" id="Path" stroke="#FFFFFF" stroke-width="1.5" fill="none"></path>
                    <path d="M108.999953,324.359907 C107.14427,324.359907 105.64,322.85573 105.64,320.999953 C105.64,319.14427 107.144177,317.64 108.999953,317.64 C110.85573,317.64 112.36,319.144176 112.36,320.999953 C112.36,322.855637 110.85573,324.359907 108.999953,324.359907 Z" id="Path" stroke="#FFFFFF" stroke-width="1.5" fill="none"></path>
                    <path d="M120.777826,18.8312026 C120.721646,18.4996013 120.407717,18.2900836 120.080051,18.3651704 L118.028553,18.8343666 C117.794727,17.8458907 117.402855,16.9186881 116.881492,16.080463 L118.661273,14.955627 C118.945338,14.7764373 119.017724,14.4053248 118.822559,14.1317556 C118.822559,14.1317556 118.516656,13.5704952 117.455794,12.5097878 C116.395087,11.4488489 115.801801,11.1208746 115.801801,11.1208746 C115.527537,10.926328 115.157428,11.0001801 114.978778,11.2848617 L113.859498,13.0680386 C113.019576,12.5495306 112.091215,12.1605145 111.101891,11.9299293 L111.564682,9.87735048 C111.638688,9.54953055 111.428013,9.23598714 111.096489,9.18057878 C111.096489,9.18057878 110.483215,9 108.982868,9 C107.482521,9 106.831125,9.18767846 106.831125,9.18767846 C106.499833,9.24393569 106.290006,9.55786495 106.365093,9.88553055 L106.834444,11.9371833 C105.846045,12.1709325 104.91892,12.5626495 104.080617,13.0840129 L102.955859,11.3042315 C102.77636,11.0202444 102.405556,10.947627 102.131987,11.1426367 C102.131987,11.1426367 101.57065,11.4487717 100.509711,12.5095563 C99.448926,13.570418 99.1208746,14.1637814 99.1208746,14.1637814 C98.926328,14.4378135 99.0001029,14.8083087 99.2847846,14.986881 L101.068039,16.1060064 C100.549531,16.9460064 100.160592,17.8742894 99.9299293,18.8636142 L97.8772733,18.400746 C97.5495305,18.3268939 97.2359871,18.5375691 97.1805788,18.8690161 C97.1805788,18.8690161 97,19.4822894 97,20.982791 C97,22.4829068 97.1876013,23.1343794 97.1876013,23.1343794 C97.2438585,23.465672 97.557865,23.6754984 97.8855305,23.6004116 L99.9371061,23.1310611 C100.170855,24.119537 100.56265,25.0465852 101.084013,25.8849646 L99.3042315,27.0096463 C99.0201672,27.1891447 98.947627,27.5599486 99.142791,27.833672 C99.142791,27.833672 99.4486945,28.3947781 100.509633,29.4558714 C101.570341,30.5165016 102.163704,30.8444759 102.163704,30.8444759 C102.437814,31.0390997 102.808154,30.9653248 102.986804,30.6806431 L104.106006,28.8974662 C104.945852,29.4161286 105.874212,29.8049904 106.863537,30.0357299 L106.400746,32.0881543 C106.32674,32.4159743 106.537569,32.7295177 106.869093,32.7847717 C106.869093,32.7847717 107.482212,32.9655048 108.982714,32.9653505 C110.48283,32.9653505 111.134302,32.7778264 111.134302,32.7778264 C111.465672,32.7216463 111.675421,32.4076399 111.600334,32.0799743 L111.130984,30.0284759 C112.11946,29.7947267 113.046662,29.4027781 113.884888,28.8816463 L115.009646,30.661119 C115.18899,30.9454148 115.559871,31.0177235 115.833518,30.8225595 C115.833518,30.8225595 116.394701,30.5167331 117.45564,29.4557942 C118.516347,28.3950096 118.844399,27.8017235 118.844399,27.8017235 C119.038945,27.527537 118.965248,27.1575048 118.680566,26.9787781 L116.897389,25.8594984 C117.415974,25.0196527 117.804913,24.0912154 118.035576,23.1018907 L120.088154,23.5646045 C120.41582,23.6387653 120.729363,23.4277814 120.784695,23.0963344 C120.784695,23.0963344 120.965273,22.4832154 120.965273,20.9828682 C120.965505,19.4826752 120.777826,18.8312026 120.777826,18.8312026 Z" id="Path" stroke="#FFFFFF" stroke-width="1.5" fill="none"></path>
                    <path d="M108.999953,24.3599066 C107.14427,24.3599066 105.64,22.8557301 105.64,20.9999533 C105.64,19.1442699 107.144177,17.64 108.999953,17.64 C110.85573,17.64 112.36,19.1441765 112.36,20.9999533 C112.36,22.8556367 110.85573,24.3599066 108.999953,24.3599066 Z" id="Path" stroke="#FFFFFF" stroke-width="1.5" fill="none"></path>
                    <path d="M58.637554,278.194424 L60.4752861,278.194424 C61.5798556,278.194424 62.4752861,279.089855 62.4752861,280.194424 L62.4752861,313.929616 C62.4752861,315.034185 61.5798556,315.929616 60.4752861,315.929616 L30.0501991,315.929616 C28.9456296,315.929616 28.0501991,315.034185 28.0501991,313.929616 L28.0501991,311.557924" id="Rectangle-5" stroke="#FFFFFF" stroke-width="1.5" fill="none" transform="translate(45.262743, 297.062020) rotate(-20.000000) translate(-45.262743, -297.062020) "></path>
                    <rect id="Rectangle-5" stroke="#FFFFFF" stroke-width="1.5" fill="none" transform="translate(39.627598, 294.181489) rotate(-20.000000) translate(-39.627598, -294.181489) " x="22.4150542" y="275.313894" width="34.4250871" height="37.7351916" rx="2"></rect>
                    <polygon id="Path-6" stroke="#FFFFFF" stroke-width="1.5" fill="none" transform="translate(43.582030, 277.947527) rotate(-20.000000) translate(-43.582030, -277.947527) " points="43.5820298 282.912684 46.8921344 279.635598 46.8921344 272.98237 40.2719253 272.98237 40.2719253 279.60258"></polygon>
                    <path d="M27.9609387,290.729807 L49.1456076,290.729807" id="Path-7" stroke="#FFFFFF" stroke-width="1.5" fill="none" transform="translate(38.553273, 291.229807) rotate(-20.000000) translate(-38.553273, -291.229807) "></path>
                    <path d="M26.2025916,286.715913 L38.1189679,286.715913" id="Path-7" stroke="#FFFFFF" stroke-width="1.5" fill="none" transform="translate(32.160780, 287.215913) rotate(-20.000000) translate(-32.160780, -287.215913) "></path>
                    <path d="M29.5459101,295.08448 L50.7305791,295.08448" id="Path-7" stroke="#FFFFFF" stroke-width="1.5" fill="none" transform="translate(40.138245, 295.584480) rotate(-20.000000) translate(-40.138245, -295.584480) "></path>
                    <path d="M31.1308815,299.439153 L52.3155504,299.439153" id="Path-7" stroke="#FFFFFF" stroke-width="1.5" fill="none" transform="translate(41.723216, 299.939153) rotate(-20.000000) translate(-41.723216, -299.939153) "></path>
                    <path d="M32.7158529,303.793826 L53.9005219,303.793826" id="Path-7" stroke="#FFFFFF" stroke-width="1.5" fill="none" transform="translate(43.308187, 304.293826) rotate(-20.000000) translate(-43.308187, -304.293826) "></path>
                    <path d="M281.696571,56.5821805 L283.534303,56.5821805 C284.638873,56.5821805 285.534303,57.477611 285.534303,58.5821805 L285.534303,92.3173722 C285.534303,93.4219417 284.638873,94.3173722 283.534303,94.3173722 L253.109216,94.3173722 C252.004647,94.3173722 251.109216,93.4219417 251.109216,92.3173722 L251.109216,89.9456804" id="Rectangle-5" stroke="#FFFFFF" stroke-width="1.5" fill="none" transform="translate(268.321760, 75.449776) rotate(10.000000) translate(-268.321760, -75.449776) "></path>
                    <rect id="Rectangle-5" stroke="#FFFFFF" stroke-width="1.5" fill="none" transform="translate(264.881846, 70.137591) rotate(10.000000) translate(-264.881846, -70.137591) " x="247.669303" y="51.2699955" width="34.4250871" height="37.7351916" rx="2"></rect>
                    <polygon id="Path-6" stroke="#FFFFFF" stroke-width="1.5" fill="none" transform="translate(276.423466, 58.055784) rotate(10.000000) translate(-276.423466, -58.055784) " points="276.423466 63.0209405 279.733571 59.7438547 279.733571 53.0906269 273.113362 53.0906269 273.113362 59.710836"></polygon>
                    <path d="M254.834961,66.5441969 L276.01963,66.5441969" id="Path-7" stroke="#FFFFFF" stroke-width="1.5" fill="none" transform="translate(265.427295, 67.044197) rotate(10.000000) translate(-265.427295, -67.044197) "></path>
                    <path d="M255.939992,59.871816 L267.856369,59.871816" id="Path-7" stroke="#FFFFFF" stroke-width="1.5" fill="none" transform="translate(261.898181, 60.371816) rotate(10.000000) translate(-261.898181, -60.371816) "></path>
                    <path d="M254.03025,71.1079402 L275.214919,71.1079402" id="Path-7" stroke="#FFFFFF" stroke-width="1.5" fill="none" transform="translate(264.622584, 71.607940) rotate(10.000000) translate(-264.622584, -71.607940) "></path>
                    <path d="M253.225539,75.6716834 L274.410208,75.6716834" id="Path-7" stroke="#FFFFFF" stroke-width="1.5" fill="none" transform="translate(263.817873, 76.171683) rotate(10.000000) translate(-263.817873, -76.171683) "></path>
                    <path d="M252.420828,80.2354267 L273.605496,80.2354267" id="Path-7" stroke="#FFFFFF" stroke-width="1.5" fill="none" transform="translate(263.013162, 80.735427) rotate(10.000000) translate(-263.013162, -80.735427) "></path>
                    <path d="M198.515457,184.707309 L242.378471,184.707309 C243.48304,184.707309 244.378471,185.60274 244.378471,186.707309 L244.378471,235.364843 C244.378471,236.469413 243.48304,237.364843 242.378471,237.364843 L200.515457,237.365474 C199.410888,237.365474 198.515457,236.470044 198.515457,235.365474 C198.515457,235.365264 198.515457,235.365054 198.515457,235.364843 L198.529229,193.724044" id="Rectangle-5" stroke="#FFFFFF" stroke-width="1.5" fill="none" stroke-linecap="round" stroke-linejoin="round" transform="translate(221.446964, 211.036392) rotate(-45.000000) translate(-221.446964, -211.036392) "></path>
                    <path d="M201.785154,209.142503 L201.785154,252.465897" id="Path-9" stroke="#FFFFFF" stroke-width="1.5" fill="none" stroke-linecap="round" stroke-linejoin="round" transform="translate(202.285154, 230.804200) rotate(-45.000000) translate(-202.285154, -230.804200) "></path>
                    <path d="M229.012539,196.90693 L229.012539,193.81104 C229.012539,192.70647 228.117108,191.81104 227.012539,191.81104 L185.450895,191.81104 C183.241756,191.81104 181.450895,193.601901 181.450895,195.81104 L181.450895,238.098711 C181.450895,239.740434 182.781775,241.071314 184.423498,241.071314 C186.065221,241.071314 187.396101,239.740434 187.396101,238.098711 L187.396101,205.400081 L187.396101,203.701451 C187.396101,200.418004 190.05786,197.756245 193.341306,197.756245 L199.172249,197.756245 C199.24842,197.756245 199.324587,197.755157 199.400727,197.752982" id="Path-10" stroke="#FFFFFF" stroke-width="1.5" fill="none" stroke-linecap="round" stroke-linejoin="round" transform="translate(205.231717, 216.441177) rotate(-45.000000) translate(-205.231717, -216.441177) "></path>
                    <path d="M191.240813,219.80293 C191.240813,219.169259 191.240813,217.913949 191.240813,216.036999 C191.240813,213.221574 188.959305,210.939222 186.144923,210.939222 C183.33054,210.939222 181.049032,213.221574 181.049032,216.036999 C181.049032,217.913949 181.049032,219.153663 181.049032,219.756141" id="Oval-4" stroke="#FFFFFF" stroke-width="1.5" fill="none" transform="translate(186.144923, 215.371076) rotate(-45.000000) translate(-186.144923, -215.371076) "></path>
                    <polyline id="Rectangle-10" stroke="#FFFFFF" stroke-width="1.5" fill="none" stroke-linecap="round" stroke-linejoin="round" transform="translate(225.355785, 214.945212) rotate(-45.000000) translate(-225.355785, -214.945212) " points="238.944826 211.980284 238.944826 217.91014 211.766744 217.91014 211.766744 212.250859"></polyline>
                    <polyline id="Rectangle-10" stroke="#FFFFFF" stroke-width="1.5" fill="none" stroke-linecap="round" stroke-linejoin="round" transform="translate(216.904581, 206.494008) scale(-1, 1) rotate(-225.000000) translate(-216.904581, -206.494008) " points="230.493622 203.52908 230.493622 209.458936 203.31554 209.458936 203.31554 203.799655"></polyline>
                    <path d="M214.694174,198.131289 L214.694174,210.0217" id="Path-11" stroke="#FFFFFF" stroke-width="1.5" fill="none" stroke-linecap="round" stroke-linejoin="round" transform="translate(215.194174, 204.076494) rotate(-45.000000) translate(-215.194174, -204.076494) "></path>
                    <path d="M214.799696,189.26969 L221.594216,189.26969" id="Path-12" stroke="#FFFFFF" stroke-width="1.5" fill="none" stroke-linecap="round" stroke-linejoin="round" transform="translate(218.196956, 189.769690) rotate(-45.000000) translate(-218.196956, -189.769690) "></path>
                    <path d="M196.783002,207.286383 L203.577523,207.286383" id="Path-12" stroke="#FFFFFF" stroke-width="1.5" fill="none" stroke-linecap="round" stroke-linejoin="round" transform="translate(200.180263, 207.786383) rotate(-45.000000) translate(-200.180263, -207.786383) "></path>
                    <path d="M224.603355,220.621976 L224.603355,226.567181" id="Path-13" stroke="#FFFFFF" stroke-width="1.5" fill="none" stroke-linecap="round" stroke-linejoin="round" transform="translate(225.103355, 223.594579) rotate(-45.000000) translate(-225.103355, -223.594579) "></path>
                    <path d="M234.812815,210.412516 L234.812815,216.357722" id="Path-13" stroke="#FFFFFF" stroke-width="1.5" fill="none" stroke-linecap="round" stroke-linejoin="round" transform="translate(235.312815, 213.385119) rotate(-45.000000) translate(-235.312815, -213.385119) "></path>
                    <rect id="Rectangle-7" stroke="#FFFFFF" stroke-width="1.5" fill="none" stroke-linecap="round" stroke-linejoin="round" transform="translate(208.534778, 198.124205) rotate(-45.000000) translate(-208.534778, -198.124205) " x="204.288202" y="195.151602" width="8.49315068" height="5.94520548"></rect>
                    <rect id="Rectangle-7" stroke="#FFFFFF" stroke-width="1.5" fill="none" stroke-linecap="round" stroke-linejoin="round" transform="translate(221.146463, 210.735890) rotate(-45.000000) translate(-221.146463, -210.735890) " x="216.899888" y="207.763288" width="8.49315068" height="5.94520548"></rect>
                    <rect id="Rectangle-7" stroke="#FFFFFF" stroke-width="1.5" fill="none" stroke-linecap="round" stroke-linejoin="round" transform="translate(228.953697, 228.152027) rotate(-45.000000) translate(-228.953697, -228.152027) " x="224.707122" y="225.179424" width="8.49315068" height="5.94520548"></rect>
                    <rect id="Rectangle-7" stroke="#FFFFFF" stroke-width="1.5" fill="none" stroke-linecap="round" stroke-linejoin="round" transform="translate(239.163156, 217.942568) rotate(-45.000000) translate(-239.163156, -217.942568) " x="234.916581" y="214.969965" width="8.49315068" height="5.94520548"></rect>
                    <rect id="Rectangle-7" stroke="#FFFFFF" stroke-width="1.5" fill="none" stroke-linecap="round" stroke-linejoin="round" transform="translate(230.755366, 201.126987) rotate(-45.000000) translate(-230.755366, -201.126987) " x="226.508791" y="198.154384" width="8.49315068" height="5.94520548"></rect>
                    <rect id="Rectangle-7" stroke="#FFFFFF" stroke-width="1.5" fill="none" stroke-linecap="round" stroke-linejoin="round" transform="translate(211.537560, 220.344793) rotate(-45.000000) translate(-211.537560, -220.344793) " x="207.290985" y="217.372191" width="8.49315068" height="5.94520548"></rect>
                    <rect id="Rectangle-6" stroke="#FFFFFF" stroke-width="1.5" fill="none" x="169" y="258" width="16" height="12"></rect>
                    <path d="M177,271 L177,274" id="Path-16" stroke="#FFFFFF" stroke-width="1.5" fill="none"></path>
                    <path d="M174,274 L180,274" id="Path-17" stroke="#FFFFFF" stroke-width="1.5" fill="none"></path>
                    <rect id="Rectangle-6" stroke="#FFFFFF" stroke-width="1.5" fill="none" x="73" y="40" width="16" height="12"></rect>
                    <path d="M81,53 L81,56" id="Path-16" stroke="#FFFFFF" stroke-width="1.5" fill="none"></path>
                    <path d="M78,56 L84,56" id="Path-17" stroke="#FFFFFF" stroke-width="1.5" fill="none"></path>
                    <rect id="Rectangle-6" stroke="#FFFFFF" stroke-width="1.5" fill="none" x="240" y="164" width="16" height="12"></rect>
                    <path d="M248,177 L248,180" id="Path-16" stroke="#FFFFFF" stroke-width="1.5" fill="none"></path>
                    <path d="M245,180 L251,180" id="Path-17" stroke="#FFFFFF" stroke-width="1.5" fill="none"></path>
                    <polyline id="Path-18" stroke="#FFFFFF" stroke-width="1.5" fill="none" transform="translate(234.017638, 126.931852) rotate(-15.000000) translate(-234.017638, -126.931852) " points="213.517638 108.931852 213.517638 144.931852 254.517638 144.931852"></polyline>
                    <rect id="Rectangle-11" stroke="#FFFFFF" stroke-width="1.5" fill="none" transform="translate(223.048192, 138.153315) rotate(-15.000000) translate(-223.048192, -138.153315) " x="221.048192" y="133.153315" width="4" height="10"></rect>
                    <rect id="Rectangle-11" stroke="#FFFFFF" stroke-width="1.5" fill="none" transform="translate(231.223886, 133.892092) rotate(-15.000000) translate(-231.223886, -133.892092) " x="229.223886" y="126.892092" width="4" height="14"></rect>
                    <rect id="Rectangle-11" stroke="#FFFFFF" stroke-width="1.5" fill="none" transform="translate(239.270171, 129.147906) rotate(-15.000000) translate(-239.270171, -129.147906) " x="237.270171" y="119.647906" width="4" height="19"></rect>
                    <rect id="Rectangle-11" stroke="#FFFFFF" stroke-width="1.5" fill="none" transform="translate(247.316456, 124.403720) rotate(-15.000000) translate(-247.316456, -124.403720) " x="245.316456" y="112.40372" width="4" height="24"></rect>
                    <path d="M229.757068,99.3111555 C229.757068,121.551148 229.757068,132.671145 229.757068,132.671145" id="Path-19" stroke="#FFFFFF" stroke-width="1.5" fill="none" transform="translate(230.257068, 115.991150) rotate(50.000000) translate(-230.257068, -115.991150) "></path>
                    <polyline id="Path-20" stroke="#FFFFFF" stroke-width="1.5" fill="none" transform="translate(242.202595, 105.314959) rotate(50.000000) translate(-242.202595, -105.314959) " points="239.702595 107.314959 242.202595 103.314959 244.702595 107.314959"></polyline>
                    <polyline id="Path-18" stroke="#FFFFFF" stroke-width="1.5" fill="none" transform="translate(222.495498, 292.556159) rotate(-15.000000) translate(-222.495498, -292.556159) " points="201.995498 274.556159 201.995498 310.556159 242.995498 310.556159"></polyline>
                    <rect id="Rectangle-11" stroke="#FFFFFF" stroke-width="1.5" fill="none" transform="translate(211.526052, 303.777622) rotate(-15.000000) translate(-211.526052, -303.777622) " x="209.526052" y="298.777622" width="4" height="10"></rect>
                    <rect id="Rectangle-11" stroke="#FFFFFF" stroke-width="1.5" fill="none" transform="translate(219.701746, 299.516399) rotate(-15.000000) translate(-219.701746, -299.516399) " x="217.701746" y="292.516399" width="4" height="14"></rect>
                    <rect id="Rectangle-11" stroke="#FFFFFF" stroke-width="1.5" fill="none" transform="translate(227.748031, 294.772213) rotate(-15.000000) translate(-227.748031, -294.772213) " x="225.748031" y="285.272213" width="4" height="19"></rect>
                    <rect id="Rectangle-11" stroke="#FFFFFF" stroke-width="1.5" fill="none" transform="translate(235.794316, 290.028027) rotate(-15.000000) translate(-235.794316, -290.028027) " x="233.794316" y="278.028027" width="4" height="24"></rect>
                    <path d="M218.234928,264.935463 C218.234928,287.175455 218.234928,298.295452 218.234928,298.295452" id="Path-19" stroke="#FFFFFF" stroke-width="1.5" fill="none" transform="translate(218.734928, 281.615457) rotate(50.000000) translate(-218.734928, -281.615457) "></path>
                    <polyline id="Path-20" stroke="#FFFFFF" stroke-width="1.5" fill="none" transform="translate(230.680455, 270.939266) rotate(50.000000) translate(-230.680455, -270.939266) " points="228.180455 272.939266 230.680455 268.939266 233.180455 272.939266"></polyline>
                    <path d="M93.2352941,90.9117647 L93.2352941,95.1764706 L88.9705882,90.9117647 L86,90.9117647 C84.3431458,90.9117647 83,89.568619 83,87.9117647 L83,76 C83,74.3431458 84.3431458,73 86,73 L109,73 C110.656854,73 112,74.3431458 112,76 L112,87.9117647 C112,89.568619 110.656854,90.9117647 109,90.9117647 L93.2352941,90.9117647 Z" id="Combined-Shape" stroke="#FFFFFF" stroke-width="1.5" fill="none"></path>
                    <path d="M88.1176471,79.8235294 L100.058823,79.8235294" id="Path-22" stroke="#FFFFFF" stroke-width="1.5" fill="none"></path>
                    <path d="M88.1176471,84.0882353 L106.882353,84.0882353" id="Path-22" stroke="#FFFFFF" stroke-width="1.5" fill="none"></path>
                    <path d="M135,73 L135,65 C135,63.3431457 133.656854,62 132,62 L109,62 C107.343146,62 106,63.3431457 106,65 L106,77 C106,78.6568542 107.343146,80 109,80 L111,80 L116,85 L116,79.9009805 L129,80" id="Path-23" stroke="#FFFFFF" stroke-width="1.5" fill="none" transform="translate(120.500000, 73.500000) scale(-1, 1) translate(-120.500000, -73.500000) "></path>
                    <path d="M111,69 L130,69" id="Path-22" stroke="#FFFFFF" stroke-width="1.5" fill="none" transform="translate(120.500000, 69.500000) scale(-1, 1) translate(-120.500000, -69.500000) "></path>
                    <path d="M115,73 L130,73" id="Path-22" stroke="#FFFFFF" stroke-width="1.5" fill="none" transform="translate(122.500000, 73.500000) scale(-1, 1) translate(-122.500000, -73.500000) "></path>
                    <path d="M262.536783,266.266466 C258.856739,269.261699 255.344478,268.901272 252,265.185185 L256.662354,261.040871 C255.27328,258.846805 254.469136,256.245707 254.469136,253.45679 C254.469136,245.61571 260.825587,239.259259 268.666667,239.259259 C276.507746,239.259259 282.864197,245.61571 282.864197,253.45679 C282.864197,261.29787 276.507746,267.654321 268.666667,267.654321 C266.471358,267.654321 264.392424,267.156063 262.536783,266.266466 Z" id="Combined-Shape" stroke="#FFFFFF" stroke-width="1.5" fill="none" stroke-linecap="round" stroke-linejoin="round"></path>
                    <path d="M297.337646,251.781611 L302,255.925926 C298.655522,259.642012 295.143261,260.002439 291.463217,257.007206 C289.607576,257.896804 287.528642,258.395062 285.333333,258.395062 C284.225406,258.395062 283.147119,258.268155 282.112217,258.028084 C280.209444,263.62642 274.908439,267.654321 268.666667,267.654321 C266.471358,267.654321 264.392424,267.156063 262.536783,266.266466 C258.856739,269.261699 255.344478,268.901272 252,265.185185 L256.662354,261.040871 C255.27328,258.846805 254.469136,256.245707 254.469136,253.45679 C254.469136,245.61571 260.825587,239.259259 268.666667,239.259259 C269.774594,239.259259 270.852881,239.386166 271.887783,239.626237 C273.790556,234.027901 279.091561,230 285.333333,230 C293.174413,230 299.530864,236.356451 299.530864,244.197531 C299.530864,246.986447 298.72672,249.587546 297.337646,251.781611 Z" id="Combined-Shape" stroke="#FFFFFF" stroke-width="1.5" fill="none" stroke-linecap="round" stroke-linejoin="round"></path>
                    <circle id="Oval-7" stroke="#FFFFFF" stroke-width="1.5" fill="#FFFFFF" fill-rule="nonzero" cx="274.530864" cy="253.765432" r="1"></circle>
                    <circle id="Oval-7" stroke="#FFFFFF" stroke-width="1.5" fill="#FFFFFF" fill-rule="nonzero" cx="262.185185" cy="253.765432" r="1"></circle>
                    <circle id="Oval-7" stroke="#FFFFFF" stroke-width="1.5" fill="#FFFFFF" fill-rule="nonzero" cx="268.358025" cy="253.765432" r="1"></circle>
                    <circle id="Oval-7" stroke="#FFFFFF" stroke-width="1.5" fill="#FFFFFF" fill-rule="nonzero" cx="293.049383" cy="244.506173" r="1"></circle>
                    <circle id="Oval-7" stroke="#FFFFFF" stroke-width="1.5" fill="#FFFFFF" fill-rule="nonzero" cx="286.876543" cy="244.506173" r="1"></circle>
                    <path d="M120.536783,190.266466 C116.856739,193.261699 113.344478,192.901272 110,189.185185 L114.662354,185.040871 C113.27328,182.846805 112.469136,180.245707 112.469136,177.45679 C112.469136,169.61571 118.825587,163.259259 126.666667,163.259259 C134.507746,163.259259 140.864197,169.61571 140.864197,177.45679 C140.864197,185.29787 134.507746,191.654321 126.666667,191.654321 C124.471358,191.654321 122.392424,191.156063 120.536783,190.266466 Z" id="Combined-Shape" stroke="#FFFFFF" stroke-width="1.5" fill="none" stroke-linecap="round" stroke-linejoin="round"></path>
                    <path d="M155.337646,175.781611 L160,179.925926 C156.655522,183.642012 153.143261,184.002439 149.463217,181.007206 C147.607576,181.896804 145.528642,182.395062 143.333333,182.395062 C142.225406,182.395062 141.147119,182.268155 140.112217,182.028084 C138.209444,187.62642 132.908439,191.654321 126.666667,191.654321 C124.471358,191.654321 122.392424,191.156063 120.536783,190.266466 C116.856739,193.261699 113.344478,192.901272 110,189.185185 L114.662354,185.040871 C113.27328,182.846805 112.469136,180.245707 112.469136,177.45679 C112.469136,169.61571 118.825587,163.259259 126.666667,163.259259 C127.774594,163.259259 128.852881,163.386166 129.887783,163.626237 C131.790556,158.027901 137.091561,154 143.333333,154 C151.174413,154 157.530864,160.356451 157.530864,168.197531 C157.530864,170.986447 156.72672,173.587546 155.337646,175.781611 Z" id="Combined-Shape" stroke="#FFFFFF" stroke-width="1.5" fill="none" stroke-linecap="round" stroke-linejoin="round"></path>
                    <circle id="Oval-7" stroke="#FFFFFF" stroke-width="1.5" fill="#FFFFFF" fill-rule="nonzero" cx="132.530864" cy="177.765432" r="1"></circle>
                    <circle id="Oval-7" stroke="#FFFFFF" stroke-width="1.5" fill="#FFFFFF" fill-rule="nonzero" cx="120.185185" cy="177.765432" r="1"></circle>
                    <circle id="Oval-7" stroke="#FFFFFF" stroke-width="1.5" fill="#FFFFFF" fill-rule="nonzero" cx="126.358025" cy="177.765432" r="1"></circle>
                    <circle id="Oval-7" stroke="#FFFFFF" stroke-width="1.5" fill="#FFFFFF" fill-rule="nonzero" cx="151.049383" cy="168.506173" r="1"></circle>
                    <circle id="Oval-7" stroke="#FFFFFF" stroke-width="1.5" fill="#FFFFFF" fill-rule="nonzero" cx="144.876543" cy="168.506173" r="1"></circle>
                    <path d="M171.201772,155.668587 L171.201772,130.293587 L193.40952,130.293587 L193.40952,158.614804 C193.40952,160.242732 192.089823,161.562429 190.461895,161.562429 C188.833967,161.562429 187.514271,160.242732 187.514271,158.614804 L187.514271,155.651195 L171.201772,155.668587 Z" id="Path-24" stroke="#FFFFFF" stroke-width="1.5" fill="none" transform="translate(182.305646, 145.928008) rotate(-14.000000) translate(-182.305646, -145.928008) "></path>
                    <path d="M174.858558,156.38853 L168.061683,156.38853 C168.061683,159.641832 170.699005,162.279155 173.952308,162.279155 L193.889808,162.279155" id="Path-25" stroke="#FFFFFF" stroke-width="1.5" fill="none" transform="translate(180.975745, 159.333842) rotate(-14.000000) translate(-180.975745, -159.333842) "></path>
                    <path d="M173.496814,136.459352 L186.637439,136.459352" id="Path-26" stroke="#FFFFFF" stroke-width="1.5" fill="none" transform="translate(180.067126, 136.959352) rotate(-14.000000) translate(-180.067126, -136.959352) "></path>
                    <path d="M174.5507,140.964443 L183.160075,140.964443" id="Path-26" stroke="#FFFFFF" stroke-width="1.5" fill="none" transform="translate(178.855388, 141.464443) rotate(-14.000000) translate(-178.855388, -141.464443) "></path>
                    <path d="M175.469989,144.373326 L188.610614,144.373326" id="Path-26" stroke="#FFFFFF" stroke-width="1.5" fill="none" transform="translate(182.040302, 144.873326) rotate(-14.000000) translate(-182.040302, -144.873326) "></path>
                    <path d="M176.456577,148.330314 L189.597202,148.330314" id="Path-26" stroke="#FFFFFF" stroke-width="1.5" fill="none" transform="translate(183.026889, 148.830314) rotate(-14.000000) translate(-183.026889, -148.830314) "></path>
                    <path d="M158.60779,327.705363 L158.60779,302.330363 L180.815538,302.330363 L180.815538,330.65158 C180.815538,332.279508 179.495841,333.599205 177.867913,333.599205 C176.239985,333.599205 174.920289,332.279508 174.920289,330.65158 L174.920289,327.687971 L158.60779,327.705363 Z" id="Path-24" stroke="#FFFFFF" stroke-width="1.5" fill="none" transform="translate(169.711664, 317.964784) rotate(-14.000000) translate(-169.711664, -317.964784) "></path>
                    <path d="M160.902832,308.496128 L174.043457,308.496128" id="Path-26" stroke="#FFFFFF" stroke-width="1.5" fill="none" transform="translate(167.473144, 308.996128) rotate(-14.000000) translate(-167.473144, -308.996128) "></path>
                    <path d="M161.956718,313.001219 L170.566093,313.001219" id="Path-26" stroke="#FFFFFF" stroke-width="1.5" fill="none" transform="translate(166.261406, 313.501219) rotate(-14.000000) translate(-166.261406, -313.501219) "></path>
                    <path d="M162.876007,316.410102 L176.016632,316.410102" id="Path-26" stroke="#FFFFFF" stroke-width="1.5" fill="none" transform="translate(169.446320, 316.910102) rotate(-14.000000) translate(-169.446320, -316.910102) "></path>
                    <path d="M163.862595,320.36709 L177.00322,320.36709" id="Path-26" stroke="#FFFFFF" stroke-width="1.5" fill="none" transform="translate(170.432907, 320.867090) rotate(-14.000000) translate(-170.432907, -320.867090) "></path>
                    <path d="M158.60779,27.7053633 L158.60779,2.33036329 L180.815538,2.33036329 L180.815538,30.6515804 C180.815538,32.2795085 179.495841,33.599205 177.867913,33.599205 C176.239985,33.599205 174.920289,32.2795085 174.920289,30.6515804 L174.920289,27.6879707 L158.60779,27.7053633 Z" id="Path-24" stroke="#FFFFFF" stroke-width="1.5" fill="none" transform="translate(169.711664, 17.964784) rotate(-14.000000) translate(-169.711664, -17.964784) "></path>
                    <path d="M162.264576,28.4253059 L155.467701,28.4253059 C155.467701,31.6786083 158.105023,34.3159309 161.358326,34.3159309 L181.295826,34.3159309" id="Path-25" stroke="#FFFFFF" stroke-width="1.5" fill="none" transform="translate(168.381763, 31.370618) rotate(-14.000000) translate(-168.381763, -31.370618) "></path>
                    <circle id="Oval-5" stroke="#FFFFFF" stroke-width="1.5" fill="none" cx="138.369231" cy="221.953846" r="1.75384615"></circle>
                    <circle id="Oval-5" stroke="#FFFFFF" stroke-width="1.5" fill="none" cx="144.215385" cy="226.630769" r="1.75384615"></circle>
                    <circle id="Oval-3" stroke="#FFFFFF" stroke-width="1.5" fill="none" cx="141" cy="224" r="19"></circle>
                    <circle id="Oval-3" stroke="#FFFFFF" stroke-width="1.5" fill="none" cx="141" cy="224" r="13.1538462"></circle>
                    <path d="M124.338462,214.353846 L129.015385,217.861538" id="Path-27" stroke="#FFFFFF" stroke-width="1.5" fill="none"></path>
                    <path d="M127.261538,210.846154 L131.353846,214.353846" id="Path-28" stroke="#FFFFFF" stroke-width="1.5" fill="none" stroke-linecap="round" stroke-linejoin="round"></path>
                    <path d="M141.292308,205 L141.292308,210.261538" id="Path-29" stroke="#FFFFFF" stroke-width="1.5" fill="none" stroke-linecap="round" stroke-linejoin="round"></path>
                    <path d="M152.984615,217.861538 L157.076923,214.938462" id="Path-30" stroke="#FFFFFF" stroke-width="1.5" fill="none" stroke-linecap="round" stroke-linejoin="round"></path>
                    <path d="M144.215385,220.2 L138.953846,228.384615" id="Path-31" stroke="#FFFFFF" stroke-width="1.5" fill="none" stroke-linecap="round" stroke-linejoin="round"></path>
                    <path d="M186.354026,80.0795768 C190.171585,80.0795768 193.266329,76.9848334 193.266329,73.1672739 C193.266329,69.3497144 190.171585,66.254971 186.354026,66.254971" id="Oval-8" stroke="#FFFFFF" stroke-width="1.5" fill="none"></path>
                    <rect id="Rectangle-13" stroke="#FFFFFF" stroke-width="1.5" fill="none" x="181.846002" y="54.8346444" width="4.80855856" height="35.4631194" rx="2.40427928"></rect>
                    <path d="M181.854587,62.0474822 C181.453874,64.3252205 179.851021,65.4640896 177.046029,65.4640896 L163.40828,65.4640896 C159.3168,65.4640896 156,68.7808896 156,72.8723697 C156,76.9638498 159.3168,80.2806498 163.40828,80.2806498 L177.046032,80.2806498 C179.049596,80.2731421 180.652448,81.4082575 181.854587,83.6859957" id="Path-33" stroke="#FFFFFF" stroke-width="1.5" fill="none"></path>
                    <path d="M169.223536,65.6539011 L169.223536,80.0920937" id="Path-34" stroke="#FFFFFF" stroke-width="1.5" fill="none"></path>
                    <path d="M165.016047,80.6806466 L165.016047,113.143982 C168.221753,113.53913 170.225319,110.932639 171.026746,105.324509 C171.828172,99.7163793 173.030312,91.5017584 174.633164,80.6806466" id="Path-35" stroke="#FFFFFF" stroke-width="1.5" fill="none" stroke-linecap="round" stroke-linejoin="round"></path>
                    <path d="M197.148649,65.0528313 L206.164696,57.8399935" id="Path-36" stroke="#FFFFFF" stroke-width="1.5" fill="none" stroke-linecap="round" stroke-linejoin="round"></path>
                    <path d="M210.372185,54.8346444 L217.585022,49.425016" id="Path-37" stroke="#FFFFFF" stroke-width="1.5" fill="none" stroke-linecap="round" stroke-linejoin="round"></path>
                    <path d="M198.951858,70.4624597 L219.388232,59.6432029" id="Path-38" stroke="#FFFFFF" stroke-width="1.5" fill="none" stroke-linecap="round" stroke-linejoin="round"></path>
                    <path d="M202.558277,72.866739 L207.967905,72.866739" id="Path-39" stroke="#FFFFFF" stroke-width="1.5" fill="none" stroke-linecap="round" stroke-linejoin="round"></path>
                    <path d="M210.973254,72.866739 L226,72.866739" id="Path-40" stroke="#FFFFFF" stroke-width="1.5" fill="none" stroke-linecap="round" stroke-linejoin="round"></path>
                    <path d="M198.951858,75.2710183 L206.164696,79.478507" id="Path-41" stroke="#FFFFFF" stroke-width="1.5" fill="none" stroke-linecap="round" stroke-linejoin="round"></path>
                    <path d="M210.372185,81.2817165 L220.590372,86.6913448" id="Path-42" stroke="#FFFFFF" stroke-width="1.5" fill="none" stroke-linecap="round" stroke-linejoin="round"></path>
                    <path d="M197.148649,80.6806466 L215.781813,95.1063223" id="Path-43" stroke="#FFFFFF" stroke-width="1.5" fill="none" stroke-linecap="round" stroke-linejoin="round"></path>
                    <polygon id="Path-46" stroke="#FFFFFF" stroke-width="1.5" fill="none" stroke-linecap="round" stroke-linejoin="round" transform="translate(133.616978, 118.321394) rotate(-40.000000) translate(-133.616978, -118.321394) " points="124.116978 103.321394 143.116978 103.321394 143.116978 133.321394 133.616978 124.321394 124.116978 133.321394"></polygon>
                    <path d="M118.650207,111.301564 L137.676504,111.301564" id="Path-47" stroke="#FFFFFF" stroke-width="1.5" fill="none" transform="translate(128.163356, 111.801564) rotate(-40.000000) translate(-128.163356, -111.801564) "></path>
                    <polygon id="Path-46" stroke="#FFFFFF" stroke-width="1.5" fill="none" stroke-linecap="round" stroke-linejoin="round" transform="translate(282.869246, 298.668543) rotate(30.000000) translate(-282.869246, -298.668543) " points="273.369246 283.668543 292.369246 283.668543 292.369246 313.668543 282.869246 304.668543 273.369246 313.668543"></polygon>
                    <path d="M277.617485,290.813901 L296.643782,290.813901" id="Path-47" stroke="#FFFFFF" stroke-width="1.5" fill="none" transform="translate(287.130633, 291.313901) rotate(30.000000) translate(-287.130633, -291.313901) "></path>
                </g>
            </g>
        </g>
    </g>
</svg>