<svg width="280" height="47" viewBox="0 0 280 47" version="1.1" xmlns="http://www.w3.org/2000/svg" xmlns:xlink="http://www.w3.org/1999/xlink" xmlns:figma="http://www.figma.com/figma/ns">
<title>Group</title>
<desc>Created using Figma</desc>
<g id="Canvas" transform="translate(-3492 -16000)" figma:type="canvas">
<g id="Group" figma:type="frame">
<g id="Vector" figma:type="vector">
<use xlink:href="#path0_fill" transform="translate(3536.68 16008.8)" fill="#F18E23"/>
</g>
<g id="Vector" figma:type="vector">
<use xlink:href="#path1_fill" transform="translate(3492.46 16000.6)" fill="#F18E23"/>
</g>
<g id="Group" figma:type="frame">
<g id="Vector" figma:type="vector">
<use xlink:href="#path2_fill" transform="translate(3573.5 16008.6)" fill="#444445"/>
</g>
<g id="Vector" figma:type="vector">
<use xlink:href="#path3_fill" transform="translate(3598.57 16009.3)" fill="#444445"/>
</g>
<g id="Vector" figma:type="vector">
<use xlink:href="#path4_fill" transform="translate(3630.1 16008.6)" fill="#444445"/>
</g>
<g id="Vector" figma:type="vector">
<use xlink:href="#path5_fill" transform="translate(3654.34 16025.6)" fill="#444445"/>
</g>
<g id="Vector" figma:type="vector">
<use xlink:href="#path6_fill" transform="translate(3671.73 16009.3)" fill="#444445"/>
</g>
<g id="Vector" figma:type="vector">
<use xlink:href="#path7_fill" transform="translate(3703.02 16016)" fill="#444445"/>
</g>
<g id="Vector" figma:type="vector">
<use xlink:href="#path8_fill" transform="translate(3724.07 16016.1)" fill="#444445"/>
</g>
<g id="Vector" figma:type="vector">
<use xlink:href="#path9_fill" transform="translate(3746.72 16016.6)" fill="#444445"/>
</g>
<g id="Vector" figma:type="vector">
<use xlink:href="#path10_fill" transform="translate(3757.75 16016)" fill="#444445"/>
</g>
<g id="Vector" figma:type="vector">
<use xlink:href="#path11_fill" transform="translate(3746.62 16009.7)" fill="#F18E23"/>
</g>
</g>
</g>
</g>
<defs>
<path id="path0_fill" d="M 26.3802 7.49971L 13.1037 0L 0.103724 7.53395L 13.3803 14.9994L 0 22.7388L 13.2765 30.2385L 26.4493 22.6019L 26.3802 7.49971Z"/>
<path id="path1_fill" d="M 40.3828 11.5406L 20.468 -2.6127e-07L 0.138297 11.4722L -5.27562e-07 34.6219L 20.1914 46.3338L 40.5211 34.8616L 20.0531 23.0128L 40.3828 11.5406Z"/>
<path id="path2_fill" d="M 0.0345764 20.2389L 3.11169 20.2389L 3.11169 21.2663C 3.11169 23.2183 3.56115 24.6908 4.46008 25.6497C 5.35902 26.6428 6.70742 27.1565 8.47071 27.1565C 10.0611 27.1565 11.3404 26.677 12.2393 25.7182C 13.1382 24.7593 13.6223 23.458 13.6223 21.78C 13.6223 20.4444 13.3457 19.417 12.7925 18.6979C 12.2393 17.9787 10.9946 17.2596 9.0239 16.5062C 8.57443 16.335 7.91752 16.0953 7.08773 15.7871C 4.73668 14.9309 3.31914 14.3145 2.8351 13.9036C 2.03989 13.1844 1.45212 12.3625 1.03723 11.3694C 0.656912 10.4106 0.449462 9.28046 0.449462 7.97914C 0.449462 5.47924 1.14095 3.52726 2.52392 2.12321C 3.90689 0.719151 5.84306 -5.22541e-07 8.33241 -5.22541e-07C 10.6835 -5.22541e-07 12.5159 0.650661 13.8643 1.95198C 15.2127 3.2533 15.8696 5.03405 15.8696 7.32848C 15.8696 7.39697 15.8696 7.53395 15.835 7.70518C 15.835 7.8764 15.835 7.97914 15.835 8.08187L 12.8616 8.08187L 12.8616 7.77367C 12.8616 6.16414 12.4467 4.93131 11.6861 4.04094C 10.8909 3.18481 9.78453 2.73962 8.33241 2.73962C 6.84572 2.73962 5.63561 3.15056 4.80583 4.00669C 3.94147 4.82858 3.49201 5.95867 3.49201 7.39697C 3.49201 8.73253 3.7686 9.79414 4.39094 10.5475C 4.9787 11.3009 6.25795 12.0201 8.22868 12.7392C 8.4707 12.842 8.81644 12.9447 9.26591 13.1159C 12.2739 14.2118 14.0717 15.0337 14.6595 15.5816C 15.3856 16.2322 15.9042 17.0199 16.2499 17.9788C 16.5957 18.9034 16.7685 20.0335 16.7685 21.369C 16.7685 24.0744 16.0079 26.1976 14.4866 27.7044C 12.9654 29.2112 10.8563 29.9646 8.15954 29.9646C 5.46274 29.9646 3.42286 29.2112 2.07446 27.7386C 0.691486 26.2661 -1.96532e-14 24.0744 -1.96532e-14 21.1636C -1.96532e-14 21.0608 -1.96532e-14 20.8896 -1.96532e-14 20.6841C 0.0345743 20.4786 0.0345764 20.3417 0.0345764 20.2389Z"/>
<path id="path3_fill" d="M 20.0531 28.5948L 20.0531 1.60953L 12.9999 28.5948L 9.88825 28.5948L 3.14626 1.60953L 3.14626 28.5948L 0 28.5948L 0 -1.04508e-06L 5.39359 -1.04508e-06L 11.4787 24.3826L 17.8403 -1.04508e-06L 23.1994 -1.04508e-06L 23.1994 28.5948L 20.0531 28.5948Z"/>
<path id="path4_fill" d="M 0.0691465 20.2389L 3.14626 20.2389L 3.14626 21.2663C 3.14626 23.2183 3.59573 24.6908 4.49466 25.6497C 5.3936 26.6428 6.74199 27.1565 8.50528 27.1565C 10.0957 27.1565 11.375 26.677 12.2739 25.7182C 13.1728 24.7593 13.6569 23.458 13.6569 21.78C 13.6569 20.4444 13.3803 19.417 12.8271 18.6979C 12.2739 17.9787 11.0292 17.2596 9.05847 16.5062C 8.57443 16.335 7.9521 16.0953 7.08774 15.7871C 4.73668 14.9309 3.35371 14.3145 2.83509 13.9036C 2.03988 13.1844 1.45213 12.3625 1.03723 11.3694C 0.656916 10.4106 0.449466 9.28046 0.449466 7.97914C 0.449466 5.47924 1.14095 3.52726 2.52392 2.12321C 3.9069 0.719151 5.84305 -5.22541e-07 8.3324 -5.22541e-07C 10.6835 -5.22541e-07 12.5159 0.650661 13.8643 1.95198C 15.2127 3.2533 15.8696 5.03405 15.8696 7.32848C 15.8696 7.39697 15.8696 7.53395 15.835 7.70518C 15.835 7.8764 15.8005 7.97914 15.8005 8.08187L 12.8962 8.08187L 12.8962 7.77367C 12.8962 6.16414 12.4813 4.93131 11.7207 4.04094C 10.9255 3.18481 9.8191 2.73962 8.36698 2.73962C 6.88028 2.73962 5.67019 3.15056 4.84041 4.00669C 3.97605 4.82858 3.52658 5.95867 3.52658 7.39697C 3.52658 8.73253 3.80317 9.79414 4.39093 10.5475C 4.9787 11.3009 6.25795 12.0201 8.22869 12.7392C 8.47071 12.842 8.81645 12.9447 9.26591 13.1159C 12.2739 14.2118 14.0717 15.0337 14.6595 15.5816C 15.3856 16.2322 15.9042 17.0199 16.2499 17.9788C 16.5957 18.9034 16.7685 20.0335 16.7685 21.369C 16.7685 24.0744 16.0079 26.1976 14.4866 27.7044C 12.9654 29.2112 10.8563 29.9646 8.15953 29.9646C 5.46274 29.9646 3.42286 29.2112 2.03989 27.7386C 0.656914 26.2661 4.2205e-06 24.0744 4.2205e-06 21.1636C 4.2205e-06 21.0608 4.2205e-06 20.8896 4.2205e-06 20.6841C 0.0691528 20.4786 0.0691465 20.3417 0.0691465 20.2389Z"/>
<path id="path5_fill" d="M 9.26591 2.09016e-06L -4.2205e-06 2.09016e-06L -4.2205e-06 3.35603L 9.26591 3.35603L 9.26591 2.09016e-06Z"/>
<path id="path6_fill" d="M 20.0531 28.5948L 20.0531 1.60953L 12.9999 28.5948L 9.88826 28.5948L 3.14627 1.60953L 3.14627 28.5948L -8.44099e-06 28.5948L -8.44099e-06 -1.04508e-06L 5.3936 -1.04508e-06L 11.5133 24.3826L 17.8403 -1.04508e-06L 23.1994 -1.04508e-06L 23.1994 28.5948L 20.0531 28.5948Z"/>
<path id="path7_fill" d="M 14.6941 22.0197C 14.3138 22.0882 13.968 22.1224 13.6914 22.1567C 13.4148 22.1909 13.1382 22.1909 12.8962 22.1909C 12.0319 22.1909 11.3749 21.9169 10.8909 21.4033C 10.4069 20.8553 10.1303 20.1019 10.0957 19.1431C 9.64623 20.2389 8.95474 21.0608 8.09039 21.643C 7.22603 22.2252 6.1888 22.5334 4.9787 22.5334C 3.42286 22.5334 2.21276 22.0197 1.31383 20.9581C 0.449474 19.9307 -8.44099e-06 18.4582 -8.44099e-06 16.5747C -8.44099e-06 14.7254 0.414883 13.3214 1.21009 12.3625C 2.0053 11.4037 3.7686 10.479 6.43082 9.58867L 6.49998 9.55442C 8.71273 8.83527 9.78454 7.97914 9.78454 6.98603L 9.78454 5.03405C 9.78454 4.14367 9.54251 3.49301 9.0239 3.11632C 8.50528 2.70537 7.71007 2.4999 6.6037 2.4999C 5.53189 2.4999 4.73668 2.77386 4.21806 3.32179C 3.69945 3.86971 3.42286 4.72584 3.42286 5.89018L 3.42286 6.26688L 0.587759 6.26688C 0.622333 4.07518 1.14096 2.4999 2.17819 1.50679C 3.18084 0.513679 4.80582 0 6.984 0C 9.02389 0 10.5452 0.445188 11.4787 1.36981C 12.4122 2.29443 12.8962 3.76698 12.8962 5.7532L 12.8962 18.2527C 12.8962 18.8006 12.9999 19.2116 13.2074 19.4513C 13.4148 19.691 13.726 19.828 14.1755 19.828C 14.2792 19.828 14.3829 19.7937 14.5904 19.7595C 14.6249 19.7595 14.6249 19.7595 14.6595 19.7253L 14.6941 22.0197ZM 9.92282 10.4448C 9.43878 10.9585 8.40156 11.5064 6.77657 12.0886C 6.63827 12.1228 6.53454 12.1913 6.46539 12.1913C 5.04784 12.6707 4.14892 13.2187 3.73403 13.8351C 3.31914 14.4515 3.07711 15.3419 3.07711 16.5404C 3.07711 17.6021 3.31912 18.4239 3.80316 19.0061C 4.28721 19.5883 4.94413 19.8622 5.80849 19.8622C 7.05317 19.8622 8.0558 19.3828 8.81644 18.4582C 9.5425 17.4993 9.92282 16.2322 9.92282 14.657L 9.92282 10.4448Z"/>
<path id="path8_fill" d="M 0.65692 23.8347L 3.66487 23.8347C 3.69944 24.6908 4.0452 25.3757 4.63297 25.8209C 5.22073 26.2661 6.08507 26.5058 7.19145 26.5058C 8.67815 26.5058 9.74995 26.0264 10.4069 25.0675C 11.0638 24.1086 11.375 22.5676 11.375 20.4444C 11.375 20.3759 11.375 20.2389 11.375 19.965C 11.375 19.7253 11.3404 19.4855 11.3404 19.2801C 10.9255 20.2389 10.2686 20.9923 9.47337 21.4718C 8.67816 21.9512 7.6755 22.2252 6.53455 22.2252C 4.35637 22.2252 2.6968 21.2663 1.625 19.3143C 0.553193 17.3966 7.86129e-14 14.4515 7.86129e-14 10.5475C 7.86129e-14 7.05452 0.587772 4.41763 1.69415 2.63688C 2.8351 0.85613 4.52923 5.22541e-07 6.77656 5.22541e-07C 7.91751 5.22541e-07 8.8856 0.273961 9.68081 0.787639C 10.476 1.30132 11.0638 2.05471 11.375 3.01358L 11.375 0.513679L 14.3138 0.513679L 14.3138 20.9238C 14.3138 23.5607 13.6914 25.5812 12.4122 27.0195C 11.1329 28.4235 9.33507 29.1427 6.98401 29.1427C 5.117 29.1427 3.59572 28.6633 2.45477 27.7044C 1.27924 26.7455 0.691486 25.5127 0.691486 24.0059L 0.691486 23.8347L 0.65692 23.8347ZM 3.18084 11.1982C 3.18084 14.1775 3.49201 16.335 4.11435 17.6363C 4.73669 18.9376 5.77391 19.5883 7.19145 19.5883C 8.67815 19.5883 9.74995 18.9376 10.3723 17.6021C 11.0292 16.3007 11.3404 14.0748 11.3404 10.9242C 11.3404 7.97914 10.9946 5.82169 10.3377 4.52037C 9.68081 3.18481 8.57442 2.53415 7.1223 2.53415C 5.73933 2.53415 4.73669 3.21905 4.11435 4.55462C 3.49201 5.89018 3.18084 8.11612 3.18084 11.1982Z"/>
<path id="path9_fill" d="M 3.11169 0L 0 0L 0 21.4033L 3.11169 21.4033L 3.11169 0Z"/>
<path id="path10_fill" d="M 10.96 14.4515L 13.9334 14.4515C 13.9334 17.0541 13.3457 19.0403 12.1356 20.4444C 10.9255 21.8485 9.23134 22.5676 7.05315 22.5676C 4.66753 22.5676 2.86968 21.643 1.72872 19.7595C 0.553197 17.876 8.44099e-06 14.9994 8.44099e-06 11.1297C 8.44099e-06 7.39697 0.587755 4.62311 1.79786 2.77386C 3.00796 0.924621 4.80584 0 7.26061 0C 9.26592 0 10.8563 0.616415 12.0319 1.815C 13.2074 3.04783 13.7951 4.6916 13.7951 6.8148L 13.7951 7.25999L 10.8563 7.25999C 10.7872 5.7532 10.476 4.62311 9.88825 3.83546C 9.30049 3.04782 8.4707 2.67113 7.3989 2.67113C 5.9122 2.67113 4.87498 3.32179 4.25264 4.62311C 3.63031 5.92443 3.31913 8.11612 3.31913 11.2324C 3.31913 14.383 3.6303 16.6089 4.28721 17.9103C 4.94412 19.2116 5.98136 19.8622 7.46805 19.8622C 8.57443 19.8622 9.47336 19.3828 10.0611 18.4582C 10.5797 17.5678 10.9255 16.2322 10.96 14.4515Z"/>
<path id="path11_fill" d="M 3.11169 0L 4.2205e-06 0L 4.2205e-06 3.90396L 3.11169 3.90396L 3.11169 0Z"/>
</defs>
</svg>
