<?xml version="1.0" encoding="UTF-8"?>
<svg width="200px" height="34px" viewBox="0 0 200 34" version="1.1" xmlns="http://www.w3.org/2000/svg" xmlns:xlink="http://www.w3.org/1999/xlink">
    <!-- Generator: Sketch 49.1 (51147) - http://www.bohemiancoding.com/sketch -->
    <title>SMS-Magic_Logo</title>
    <desc>Created with Sketch.</desc>
    <defs></defs>
    <g id="In-sync-with-Website" stroke="none" stroke-width="1" fill="none" fill-rule="evenodd">
        <g id="01-Select-option" transform="translate(-620.000000, -66.000000)" fill-rule="nonzero">
            <g id="SMS-Magic_Logo" transform="translate(620.000000, 66.000000)">
                <polygon id="Shape" fill="#F18E23" points="50.6304079 11.4709518 41.1372064 6.05686032 31.84178 11.4956737 41.3349815 16.8850433 31.7676143 22.4721879 41.2608158 27.8862794 50.6798517 22.3733004"></polygon>
                <polygon id="Shape" fill="#F18E23" points="29.0234858 8.52904821 14.7836836 0.197775031 0.247218789 8.47960445 0.148331273 25.1915946 14.5859085 33.6464771 29.1223733 25.3646477 14.487021 16.8108776"></polygon>
                <g id="Group" transform="translate(58.096415, 5.933251)">
                    <path d="M0.0247218789,14.6353523 L2.2249691,14.6353523 L2.2249691,15.3770087 C2.2249691,16.7861557 2.54635352,17.8491965 3.18912237,18.5414091 C3.83189122,19.2583436 4.7960445,19.6291718 6.05686032,19.6291718 C7.19406675,19.6291718 8.10877627,19.2830655 8.75154512,18.5908529 C9.39431397,17.8986403 9.74042027,16.9592089 9.74042027,15.7478368 C9.74042027,14.7836836 9.54264524,14.0420272 9.14709518,13.5228677 C8.75154512,13.0037083 7.86155748,12.4845488 6.45241038,11.9406675 C6.13102596,11.8170581 5.66131026,11.6440049 5.06798517,11.421508 C3.3868974,10.8034611 2.37330037,10.3584672 2.02719407,10.0618047 C1.45859085,9.54264524 1.03831891,8.94932015 0.741656366,8.23238566 C0.469715698,7.54017305 0.321384425,6.72435105 0.321384425,5.78491965 C0.321384425,3.9802225 0.815822002,2.5710754 1.80469716,1.55747837 C2.79357231,0.543881335 4.17799753,0.0247218789 5.95797281,0.0247218789 C7.63906057,0.0247218789 8.94932015,0.494437577 9.91347342,1.43386897 C10.8776267,2.37330037 11.3473424,3.65883807 11.3473424,5.31520396 C11.3473424,5.36464771 11.3473424,5.46353523 11.3226205,5.58714462 C11.3226205,5.71075402 11.3226205,5.78491965 11.3226205,5.85908529 L9.19653894,5.85908529 L9.19653894,5.63658838 C9.19653894,4.47466007 8.89987639,3.58467244 8.35599506,2.94190358 C7.78739184,2.32385661 6.99629172,2.00247219 5.95797281,2.00247219 C4.89493201,2.00247219 4.02966625,2.29913473 3.43634116,2.91718171 C2.81829419,3.5105068 2.49690977,4.3263288 2.49690977,5.36464771 C2.49690977,6.32880099 2.6946848,7.09517923 3.13967862,7.63906057 C3.55995056,8.1829419 4.47466007,8.70210136 5.88380717,9.22126082 C6.05686032,9.29542645 6.30407911,9.36959209 6.62546354,9.49320148 C8.776267,10.2843016 10.0618047,10.8776267 10.4820766,11.2731768 C11.0012361,11.7428925 11.3720643,12.3114957 11.6192831,13.0037083 C11.8665019,13.671199 11.9901112,14.487021 11.9901112,15.4511743 C11.9901112,17.4042027 11.4462299,18.9369592 10.3584672,20.0247219 C9.27070457,21.1124845 7.76266996,21.6563659 5.83436341,21.6563659 C3.90605686,21.6563659 2.44746601,21.1124845 1.48331273,20.0494438 C0.494437577,18.986403 5.68434189e-14,17.4042027 5.68434189e-14,15.302843 C5.68434189e-14,15.2286774 5.68434189e-14,15.105068 5.68434189e-14,14.9567367 C0.0247218789,14.8084054 0.0247218789,14.7095179 0.0247218789,14.6353523" id="Shape" fill="#FFFFFF"></path>
                    <polygon id="Shape" fill="#FFFFFF" points="32.2620519 21.1866502 32.2620519 1.70580964 27.2187886 21.1866502 24.9938195 21.1866502 20.1730532 1.70580964 20.1730532 21.1866502 17.9233622 21.1866502 17.9233622 0.543881335 21.7799753 0.543881335 26.131026 18.1458591 30.6798517 0.543881335 34.5117429 0.543881335 34.5117429 21.1866502"></polygon>
                    <path d="M40.5191595,14.6353523 L42.7194067,14.6353523 L42.7194067,15.3770087 C42.7194067,16.7861557 43.0407911,17.8491965 43.68356,18.5414091 C44.3263288,19.2583436 45.2904821,19.6291718 46.5512979,19.6291718 C47.6885043,19.6291718 48.6032138,19.2830655 49.2459827,18.5908529 C49.8887515,17.8986403 50.2348578,16.9592089 50.2348578,15.7478368 C50.2348578,14.7836836 50.0370828,14.0420272 49.6415328,13.5228677 C49.2459827,13.0037083 48.3559951,12.4845488 46.946848,11.9406675 C46.6007417,11.8170581 46.1557478,11.6440049 45.5377009,11.421508 C43.8566131,10.8034611 42.8677379,10.3584672 42.4969098,10.0618047 C41.9283066,9.54264524 41.5080346,8.94932015 41.2113721,8.23238566 C40.9394314,7.54017305 40.7911001,6.72435105 40.7911001,5.78491965 C40.7911001,3.9802225 41.2855377,2.5710754 42.2744129,1.55747837 C43.263288,0.543881335 44.6477132,0.0247218789 46.4276885,0.0247218789 C48.1087763,0.0247218789 49.4190358,0.494437577 50.3831891,1.43386897 C51.3473424,2.37330037 51.8170581,3.65883807 51.8170581,5.31520396 C51.8170581,5.36464771 51.8170581,5.46353523 51.7923362,5.58714462 C51.7923362,5.71075402 51.7676143,5.78491965 51.7676143,5.85908529 L49.6909765,5.85908529 L49.6909765,5.63658838 C49.6909765,4.47466007 49.394314,3.58467244 48.8504326,2.94190358 C48.2818294,2.32385661 47.4907293,2.00247219 46.4524104,2.00247219 C45.3893696,2.00247219 44.5241038,2.29913473 43.9307787,2.91718171 C43.3127318,3.5105068 42.9913473,4.3263288 42.9913473,5.36464771 C42.9913473,6.32880099 43.1891224,7.09517923 43.6093943,7.63906057 C44.0296663,8.1829419 44.9443758,8.70210136 46.3535229,9.22126082 C46.526576,9.29542645 46.7737948,9.36959209 47.0951792,9.49320148 C49.2459827,10.2843016 50.5315204,10.8776267 50.9517923,11.2731768 C51.4709518,11.7428925 51.84178,12.3114957 52.0889988,13.0037083 C52.3362176,13.671199 52.4598269,14.487021 52.4598269,15.4511743 C52.4598269,17.4042027 51.9159456,18.9369592 50.8281829,20.0247219 C49.7404203,21.1124845 48.2323857,21.6563659 46.3040791,21.6563659 C44.3757726,21.6563659 42.9171817,21.1124845 41.9283066,20.0494438 C40.9394314,18.986403 40.4697157,17.4042027 40.4697157,15.302843 C40.4697157,15.2286774 40.4697157,15.105068 40.4697157,14.9567367 C40.5191595,14.8084054 40.5191595,14.7095179 40.5191595,14.6353523" id="Shape" fill="#FFFFFF"></path>
                    <rect id="Rectangle-path" fill="#FFFFFF" x="57.7997528" y="12.2620519" width="6.62546354" height="2.42274413"></rect>
                    <polygon id="Shape" fill="#FFFFFF" points="84.5735476 21.1866502 84.5735476 1.70580964 79.5302843 21.1866502 77.3053152 21.1866502 72.4845488 1.70580964 72.4845488 21.1866502 70.2348578 21.1866502 70.2348578 0.543881335 74.091471 0.543881335 78.4672435 18.1458591 82.9913473 0.543881335 86.8232386 0.543881335 86.8232386 21.1866502"></polygon>
                    <path d="M103.114957,21.2113721 C102.843016,21.2608158 102.595797,21.2855377 102.398022,21.3102596 C102.200247,21.3349815 102.002472,21.3349815 101.829419,21.3349815 C101.211372,21.3349815 100.741656,21.1372064 100.39555,20.7663782 C100.049444,20.3708282 99.8516687,19.8269468 99.8269468,19.1347342 C99.5055624,19.9258344 99.0111248,20.5191595 98.3930779,20.9394314 C97.7750309,21.3597033 97.0333745,21.5822002 96.1681088,21.5822002 C95.0556242,21.5822002 94.1903585,21.2113721 93.5475896,20.4449938 C92.9295426,19.7033375 92.6081582,18.6402967 92.6081582,17.2805933 C92.6081582,15.9456119 92.9048208,14.9320148 93.473424,14.2398022 C94.0420272,13.5475896 95.302843,12.8800989 97.2064277,12.23733 L97.2558714,12.2126082 C98.8380717,11.6934487 99.6044499,11.0754017 99.6044499,10.3584672 L99.6044499,8.94932015 C99.6044499,8.3065513 99.4313968,7.8368356 99.0605686,7.56489493 C98.6897404,7.26823239 98.1211372,7.11990111 97.3300371,7.11990111 C96.5636588,7.11990111 95.9950556,7.31767614 95.6242274,7.71322621 C95.2533993,8.10877627 95.0556242,8.72682324 95.0556242,9.56736712 L95.0556242,9.83930779 L93.0284302,9.83930779 C93.053152,8.25710754 93.4239802,7.11990111 94.1656366,6.40296663 C94.8825711,5.68603214 96.0444994,5.31520396 97.6019778,5.31520396 C99.0605686,5.31520396 100.148331,5.63658838 100.815822,6.30407911 C101.483313,6.97156984 101.829419,8.03461063 101.829419,9.4684796 L101.829419,18.4919654 C101.829419,18.8875155 101.903585,19.184178 102.051916,19.3572311 C102.200247,19.5302843 102.422744,19.6291718 102.744129,19.6291718 C102.818294,19.6291718 102.89246,19.6044499 103.040791,19.5797281 C103.065513,19.5797281 103.065513,19.5797281 103.090235,19.5550062 L103.114957,21.2113721 Z M99.7033375,12.855377 C99.3572311,13.2262052 98.6155748,13.6217553 97.4536465,14.0420272 C97.354759,14.0667491 97.2805933,14.1161928 97.2311496,14.1161928 C96.2175525,14.4622991 95.5747837,14.8578492 95.2781211,15.302843 C94.9814586,15.7478368 94.8084054,16.3906057 94.8084054,17.2558714 C94.8084054,18.0222497 94.9814586,18.6155748 95.3275649,19.0358467 C95.6736712,19.4561187 96.1433869,19.6538937 96.7614339,19.6538937 C97.6514215,19.6538937 98.368356,19.3077874 98.9122373,18.6402967 C99.4313968,17.9480841 99.7033375,17.0333745 99.7033375,15.8961681 L99.7033375,12.855377 Z" id="Shape" fill="#FFFFFF"></path>
                    <path d="M108.133498,22.6205192 L110.284302,22.6205192 C110.309023,23.2385661 110.556242,23.7330037 110.976514,24.0543881 C111.396786,24.3757726 112.014833,24.5488257 112.805933,24.5488257 C113.868974,24.5488257 114.635352,24.2027194 115.105068,23.5105068 C115.574784,22.8182942 115.797281,21.7058096 115.797281,20.1730532 C115.797281,20.1236094 115.797281,20.0247219 115.797281,19.8269468 C115.797281,19.6538937 115.772559,19.4808405 115.772559,19.3325093 C115.475896,20.0247219 115.00618,20.5686032 114.437577,20.9147095 C113.868974,21.2608158 113.15204,21.4585909 112.336218,21.4585909 C110.778739,21.4585909 109.592089,20.7663782 108.825711,19.3572311 C108.059333,17.9728059 107.663782,15.8467244 107.663782,13.0284302 C107.663782,10.5067985 108.084054,8.60321384 108.875155,7.31767614 C109.690977,6.03213844 110.902349,5.41409147 112.509271,5.41409147 C113.325093,5.41409147 114.017305,5.6118665 114.585909,5.98269468 C115.154512,6.35352287 115.574784,6.8974042 115.797281,7.58961681 L115.797281,5.78491965 L117.89864,5.78491965 L117.89864,20.5191595 C117.89864,22.4227441 117.453646,23.881335 116.538937,24.9196539 C115.624227,25.9332509 114.33869,26.4524104 112.657602,26.4524104 C111.322621,26.4524104 110.234858,26.1063041 109.419036,25.4140915 C108.578492,24.7218789 108.15822,23.8318912 108.15822,22.7441286 L108.15822,22.6205192 L108.133498,22.6205192 Z M109.938195,13.4981459 C109.938195,15.6489493 110.160692,17.2064277 110.605686,18.1458591 C111.05068,19.0852905 111.792336,19.5550062 112.805933,19.5550062 C113.868974,19.5550062 114.635352,19.0852905 115.080346,18.1211372 C115.550062,17.1817058 115.772559,15.5747837 115.772559,13.3003708 C115.772559,11.1742892 115.52534,9.61681088 115.055624,8.67737948 C114.585909,7.71322621 113.794808,7.24351051 112.756489,7.24351051 C111.767614,7.24351051 111.05068,7.73794808 110.605686,8.70210136 C110.160692,9.66625464 109.938195,11.2731768 109.938195,13.4981459 Z" id="Shape" fill="#FFFFFF"></path>
                    <rect id="Rectangle-path" fill="#FFFFFF" x="123.856613" y="5.76019778" width="2.2249691" height="15.4511743"></rect>
                    <path d="M139.579728,15.7478368 L141.70581,15.7478368 C141.70581,17.6266996 141.285538,19.0605686 140.420272,20.0741656 C139.555006,21.0877627 138.343634,21.6069221 136.786156,21.6069221 C135.080346,21.6069221 133.794808,20.9394314 132.978986,19.5797281 C132.138443,18.2200247 131.742892,16.1433869 131.742892,13.3498146 C131.742892,10.6551298 132.163164,8.6526576 133.02843,7.31767614 C133.893696,5.98269468 135.179234,5.31520396 136.934487,5.31520396 C138.368356,5.31520396 139.505562,5.76019778 140.346106,6.62546354 C141.18665,7.51545117 141.606922,8.70210136 141.606922,10.2348578 L141.606922,10.5562423 L139.505562,10.5562423 C139.456119,9.4684796 139.233622,8.6526576 138.81335,8.08405439 C138.393078,7.51545117 137.799753,7.24351051 137.033375,7.24351051 C135.970334,7.24351051 135.228677,7.71322621 134.783684,8.6526576 C134.33869,9.592089 134.116193,11.1742892 134.116193,13.4239802 C134.116193,15.6983931 134.33869,17.3053152 134.808405,18.2447466 C135.278121,19.184178 136.019778,19.6538937 137.082818,19.6538937 C137.873918,19.6538937 138.516687,19.3077874 138.936959,18.6402967 C139.307787,17.9975278 139.555006,17.0333745 139.579728,15.7478368" id="Shape" fill="#FFFFFF"></path>
                    <rect id="Rectangle-path" fill="#F18E23" x="123.782447" y="0.791100124" width="2.2249691" height="2.81829419"></rect>
                </g>
            </g>
        </g>
    </g>
</svg>